<svg xmlns="http://www.w3.org/2000/svg" style="display: none;">
  <symbol id="i-network" viewBox="0 0 24 24">
    <path d="M12 3a9 9 0 0 1 9 9h-2a7 7 0 1 0-14 0H3a9 9 0 0 1 9-9Zm-5 9a5 5 0 0 1 10 0h-2a3 3 0 1 0-6 0H7Zm5 3a2 2 0 1 1 0 4 2 2 0 0 1 0-4Z" />
  </symbol>
  <symbol id="i-router" viewBox="0 0 24 24">
    <path d="M4 8h16a2 2 0 0 1 2 2v5h-2v-5H4v5H2v-5a2 2 0 0 1 2-2Zm0 9h16v2H4v-2Zm2-4h3v2H6v-2Zm9 0h3v2h-3v-2Z" />
  </symbol>
  <symbol id="i-dns" viewBox="0 0 24 24">
    <path d="M12 2a7 7 0 0 1 7 7v3h1a2 2 0 0 1 2 2v6h-2v-6H4v6H2v-6a2 2 0 0 1 2-2h1V9a7 7 0 0 1 7-7Zm0 2a5 5 0 0 0-5 5v3h10V9a5 5 0 0 0-5-5Zm-2 12h4v2h-4v-2Z" />
  </symbol>
  <symbol id="i-device" viewBox="0 0 24 24">
    <path d="M6 3h12a2 2 0 0 1 2 2v12a2 2 0 0 1-2 2h-4v2h2v1h-8v-1h2v-2H6a2 2 0 0 1-2-2V5a2 2 0 0 1 2-2Zm0 2v12h12V5H6Z" />
  </symbol>
  <symbol id="i-tag" viewBox="0 0 24 24">
    <path d="M3 11V4a1 1 0 0 1 1-1h7l10 10-8 8L3 11Zm5-5a2 2 0 1 0 0 4 2 2 0 0 0 0-4Z" />
  </symbol>
  <symbol id="i-lease" viewBox="0 0 24 24">
    <path d="M6 4h12l2 4v12H4V8l2-4Zm1.2 2L6 8h12l-1.2-2H7.2ZM8 11h8v2H8v-2Zm0 4h5v2H8v-2Z" />
  </symbol>
  <symbol id="i-add" viewBox="0 0 24 24">
    <path d="M11 5h2v6h6v2h-6v6h-2v-6H5v-2h6V5Z" />
  </symbol>
  <symbol id="i-edit" viewBox="0 0 24 24">
    <path d="m3 17.2 11.3-11.3 3.8 3.8L6.8 21H3v-3.8Zm15.8-8.9-3.8-3.8 1.8-1.8a1.5 1.5 0 0 1 2.1 0l1.7 1.7a1.5 1.5 0 0 1 0 2.1l-1.8 1.8Z" />
  </symbol>
  <symbol id="i-save" viewBox="0 0 24 24">
    <path d="M4 3h13l3 3v15H4V3Zm2 2v14h12V7.2L16.2 5H6Zm2 8h8v5H8v-5Zm1-7h6v4H9V6Z" />
  </symbol>
  <symbol id="i-delete" viewBox="0 0 24 24">
    <path d="M7 4h10l1 2h4v2H2V6h4l1-2Zm1 5h2v9H8V9Zm6 0h2v9h-2V9ZM6 9h12l-1 12H7L6 9Z" />
  </symbol>
  <symbol id="i-close" viewBox="0 0 24 24">
    <path d="M6.7 5.3 12 10.6l5.3-5.3 1.4 1.4-5.3 5.3 5.3 5.3-1.4 1.4-5.3-5.3-5.3 5.3-1.4-1.4 5.3-5.3-5.3-5.3 1.4-1.4Z" />
  </symbol>
  <symbol id="i-power" viewBox="0 0 24 24">
    <path d="M11 2h2v10h-2V2Zm1 20a9 9 0 0 1-6.4-15.4l1.4 1.4A7 7 0 1 0 12 5V3a9 9 0 0 1 0 18Z" />
  </symbol>
  <symbol id="i-refresh" viewBox="0 0 24 24">
    <path d="M12 5a7 7 0 0 1 6.6 4.6H16v2h6V5h-2v3a9 9 0 1 0 1 7h-2.1A7 7 0 1 1 12 5Z" />
  </symbol>
  <symbol id="i-info" viewBox="0 0 24 24">
    <path d="M12 2a10 10 0 1 1 0 20 10 10 0 0 1 0-20Zm-1 6h2v2h-2V8Zm0 4h2v6h-2v-6Z" />
  </symbol>
</svg>
